<svg id="Layer_1" data-name="Layer 1" xmlns="http://www.w3.org/2000/svg" viewBox="0 0 118.49957 77.1346"><path d="M49.24064,45.27019a14.1689,14.1689,0,0,0-7.587,11.98108,13.64938,13.64938,0,0,0,5.509,11.33977,6.51955,6.51955,0,0,0,4.45859,1.473c1.85913-.1988,4.285-1.511,4.65485-3.84335a4.2175,4.2175,0,0,0-1.46936-3.91837c-1.48847-1.1043-2.87949-.05252-4.33542-1.11673-1.61-1.17677-1.55209-3.66377-1.54215-3.93429a6.78355,6.78355,0,0,1,6.27552-6.15306c6.50918.62507,8.59082,6.87,8.75854,12.25773-.309,6.38657-6.453,13.22037-12.73468,13.22449-5.49625.0036-10.51953-3.34605-20.68677-11.66266-.00009-.00006-6.66014-5.44786-13.52584-16.22864-.95856-1.50514-2.0944-3.41531-1.83675-5.75509.66588-2.1285,13.19871-15.52188,15.4142-17.34483S44.04947,13.92182,51.28019,13.92655c6.28167.00412,12.42566,6.83793,12.73468,13.2245-.1677,5.38774-2.24933,11.63264-8.75852,12.25772a6.7836,6.7836,0,0,1-6.27554-6.15306c-.00995-.27052-.06781-2.75752,1.54214-3.9343,1.45594-1.06421,2.847-.01242,4.33542-1.11673a4.2174,4.2174,0,0,0,1.46936-3.91835c-.36987-2.3323-2.79571-3.64454-4.65484-3.84335a6.51951,6.51951,0,0,0-4.45859,1.473,13.64932,13.64932,0,0,0-5.509,11.33975c.14938,4.54867,2.7104,9.47858,6.965,11.747a10.79637,10.79637,0,0,0,2.18068.87512,12.56011,12.56011,0,0,0,7.98278-.61963,17.95054,17.95054,0,0,0,4.41245-2.50457c.04221-.03391.188-.15148.35608-.29643,4.00885-3.45771,5.795-9.66463,5.80038-14.57142.00876-8.05658-4.77881-16.81774-12.53509-19.95916a18.04046,18.04046,0,0,0-7.59183-1.22449C43.83228,6.64353,28.36838,17.61572,24.9094,20.90674s-13.08431,15.0596-14.873,17.12933c-3.64461,4.21715-2.78765,8.07126-1.58776,10.626A100.49713,100.49713,0,0,0,24.85779,69.60024c7.36722,7.17041,14.5289,13.8331,24.36634,14.20468A18.04057,18.04057,0,0,0,56.816,82.58043C64.57224,79.439,69.35981,70.67783,69.351,62.62125c-.00537-4.90679-1.79154-11.11373-5.80039-14.57143-.1593-.1374-.356-.29637-.35608-.29643A45.90065,45.90065,0,0,0,59.48932,44.979Z" transform="translate(-7.41523 -6.6862)"/><path d="M84.08939,45.27019a14.16888,14.16888,0,0,1,7.587,11.98108,13.64935,13.64935,0,0,1-5.509,11.33977,6.51951,6.51951,0,0,1-4.45859,1.473c-1.85913-.1988-4.285-1.511-4.65484-3.84335a4.21745,4.21745,0,0,1,1.46936-3.91837c1.48846-1.1043,2.87948-.05252,4.33542-1.11673,1.60995-1.17677,1.55209-3.66377,1.54214-3.93429a6.78354,6.78354,0,0,0-6.27551-6.15306c-6.50919.62507-8.59082,6.87-8.75855,12.25773.309,6.38657,6.453,13.22037,12.73468,13.22449,5.49625.0036,10.51954-3.34605,20.68677-11.66266.00009-.00006,6.66014-5.44786,13.52585-16.22864.95856-1.50514,2.09439-3.41531,1.83675-5.75509-.66588-2.1285-13.19872-15.52188-15.4142-17.34483S89.28056,13.92182,82.04985,13.92655c-6.28168.00412-12.42566,6.83793-12.73468,13.2245.16769,5.38774,2.24933,11.63264,8.75851,12.25772a6.78361,6.78361,0,0,0,6.27555-6.15306c.00995-.27052.06781-2.75752-1.54215-3.9343-1.45593-1.06421-2.84695-.01242-4.33542-1.11673a4.21745,4.21745,0,0,1-1.46936-3.91835c.36988-2.3323,2.79572-3.64454,4.65485-3.84335a6.51955,6.51955,0,0,1,4.45859,1.473,13.64932,13.64932,0,0,1,5.509,11.33975c-.14938,4.54867-2.71041,9.47858-6.965,11.747a10.7966,10.7966,0,0,1-2.18068.87512,12.5601,12.5601,0,0,1-7.98278-.61963,17.95054,17.95054,0,0,1-4.41245-2.50457c-.04221-.03391-.188-.15148-.35608-.29643-4.00885-3.45771-5.795-9.66463-5.80039-14.57142-.00876-8.05658,4.77881-16.81774,12.5351-19.95916A18.04041,18.04041,0,0,1,84.0543,6.70209c5.44346-.05856,20.90735,10.91363,24.36634,14.20465s13.0843,15.0596,14.873,17.12933c3.64461,4.21715,2.78764,8.07126,1.58775,10.626a100.49646,100.49646,0,0,1-16.40918,20.93817c-7.36722,7.17041-14.5289,13.8331-24.36633,14.20468a18.04063,18.04063,0,0,1-7.59183-1.22449C68.7578,79.439,63.97023,70.67783,63.979,62.62125c.00537-4.90679,1.79153-11.11373,5.80038-14.57143.1593-.1374.356-.29637.35608-.29643A45.90257,45.90257,0,0,1,73.84071,44.979Z" transform="translate(-7.41523 -6.6862)"/></svg>