<?xml version="1.0" encoding="utf-8"?>
<!-- Generator: Adobe Illustrator 26.0.3, SVG Export Plug-In . SVG Version: 6.00 Build 0)  -->
<svg version="1.1" id="Layer_1" xmlns="http://www.w3.org/2000/svg" xmlns:xlink="http://www.w3.org/1999/xlink" x="0px" y="0px"
	 viewBox="0 0 276.3 200" style="enable-background:new 0 0 276.3 200;" xml:space="preserve">
<style type="text/css">
	.st0{fill:#BFBFBF;}
</style>
<image style="display:none;overflow:visible;opacity:0.43;" width="180" height="122" xlink:href="C:\Users\Legen\Documents\adinkra-the-earth-is-heavy-dwennimmen.png"  transform="matrix(0.75 0 0 0.75 57.7066 47.6211)">
</image>
<path class="st0" d="M210.6,79.8c0,0-9.9-9.7-13-14.7s-16.7-19.2-29.2-21c-11.2-1.6-16.9,6.2-17.8,7.5l-3.7-3.1
	c-6.5-4.3-13-5.7-21.9-1.3c-13.2,5.9-32.6,33-32.6,33c-1.7,2.4,0,5.1,0,5.1s9.9,9.7,13,14.7s16.7,19.2,29.2,21
	c11.2,1.6,16.9-6.2,17.8-7.5l3.7,3.1c6.5,4.3,13,5.7,21.9,1.3c13.2-5.9,32.6-33,32.6-33C212.3,82.5,210.6,79.8,210.6,79.8z
	 M150.1,88.1l-3.8-4.6L153,77l3.8,4.6L150.1,88.1z M145.4,105.5c-0.1,0.3-2.5,5.5-6.8,7.3c-6.5,2.8-15-3.4-24-13.3
	c-5-5.5-9.6-11.3-14.4-17c0,0-0.1-1,0.4-2.1c1-2.1,4.3-6.1,8.3-10.8c11.1-13.1,18.2-15.3,18-15.1c0,0,9.8-5.1,15.8-0.4
	c6.1,4.7,3.9,14.3,3.9,14.3s-1.6,7.5-6.1,7.8c-4,0.3-6.5-0.8-7.9-2.6c-0.3-0.4-1-1.3-1.2-2.6c-0.5-3.4,2.7-5.9,2.9-6.1
	c1.2-1.1,1.8-2.4,1.4-3.5c-0.5-1.6-3-1.8-4.2-1.8c-3.7,0.2-6.8,4-7.8,7.6c-0.3,1-0.4,1.8-0.4,2.9c-0.1,5.1,3.5,9.8,8.7,11.5
	c0.5,0.2,0.8,0.7,0.7,1.2c0,0.5-0.4,0.9-0.8,1c-4.7,2-7.7,6.5-7.7,11.4c0,6.2,5.9,10.5,8.1,11.1c2.5,0.7,4.9-0.3,5.2-1.6
	c0.3-1.7,0-4-2.9-4.8c-1.7-0.8-2.7-2.5-2.8-4.3c-0.1-2.6,1.9-4.2,2.1-4.3c0.6-0.5,2.3-1.9,4.7-1.9c3.8,0,6.1,3.5,6.6,4.2
	C148.4,98.5,145.8,104.6,145.4,105.5z M202.6,84.6c-1,2.1-4.3,6.1-8.3,10.8c-11.1,13.1-18.2,15.3-18,15.1c0,0-9.8,5.1-15.8,0.4
	c-6.1-4.7-3.9-14.3-3.9-14.3s1.6-7.5,6.1-7.8c4-0.3,6.5,0.8,7.9,2.6c0.3,0.4,1,1.3,1.2,2.6c0.5,3.4-2.7,5.9-2.9,6.1
	c-1.2,1.1-1.8,2.4-1.4,3.5c0.5,1.6,3,1.8,4.2,1.8c3.7-0.2,6.8-4,7.8-7.6c0.3-1,0.4-1.8,0.4-2.9c0.1-5.1-3.5-9.8-8.7-11.5
	c-0.5-0.2-0.8-0.7-0.7-1.2c0-0.5,0.4-0.9,0.8-1c4.7-2,7.7-6.5,7.7-11.4c0-6.2-5.9-10.5-8.1-11.1c-2.5-0.7-4.9,0.3-5.2,1.6
	c-0.3,1.7,0,4,2.9,4.8c1.7,0.8,2.7,2.5,2.8,4.3c0.1,2.6-1.9,4.2-2.1,4.3c-0.6,0.5-2.3,1.9-4.7,1.9c-3.8,0-6.1-3.5-6.6-4.2
	c-3.2-4.9-0.5-10.9-0.1-11.9c0.1-0.3,2.5-5.5,6.8-7.3c6.5-2.8,15,3.4,24,13.3c5,5.5,9.6,11.3,14.4,17
	C203,82.5,203.1,83.6,202.6,84.6z"/>
</svg>
