<svg id="Layer_1" data-name="Layer 1" xmlns="http://www.w3.org/2000/svg" xmlns:xlink="http://www.w3.org/1999/xlink" viewBox="0 0 1192.5 350.15"><defs><style>.cls-1{fill:url(#linear-gradient);}</style><linearGradient id="linear-gradient" x1="33.5" y1="314.39" x2="1226" y2="314.39" gradientUnits="userSpaceOnUse"><stop offset="0" stop-color="#fdb500"/><stop offset="0.01" stop-color="#fdb600"/><stop offset="0.32" stop-color="#fdc900"/><stop offset="0.63" stop-color="#fdd400"/><stop offset="0.96" stop-color="#fdd800"/></linearGradient></defs><path class="cls-1" d="M145.5,152.5s-112,26-112,173c0,65.95,22.55,104.86,47.41,127.7,24,22.11,51.31,28.67,64.59,31.92,39.85,9.74,72.76,1.13,103-6.62,35.21-9,114.56-54.19,139-72,27.88-20.32,45.87-35.58,55-43C485,329,549,277.22,620.5,277.5c22.63.09,61.42,5.59,109,42.07,0,0,95,89.93,173,22.93s137.5-26.5,164-11,57.15,38.47,89.36,31.1c39.44-9,69-45.86,70.14-89.6-5.26-33.38-20-59-42-51-8,1-13,3-21,17-11,28,23,29.53,18,47-5.5,19.06-24.44,31.93-45,30a378.37,378.37,0,0,0-45.5-21.5c-35.09-13.81-80.55-31.35-128-26-71,8-115,89-183,22-30.17-29.73-91.57-57.91-138-70-55.12-14.35-102.51,2.55-158.25,22.44C415.5,273.5,378.5,307.5,326.5,339.5s-128.84,66.76-171,38c-19.93-13.6-35.13-37.76-39-64-5.19-35.14,9.85-74.62,38-93,36.77-24,78-.36,94-25,7.28-11.23,5.51-26.61,0-36C235.73,137.75,193.4,130.85,145.5,152.5Z" transform="translate(-33.5 -139.31)"/></svg>