<?xml version="1.0" encoding="utf-8"?>
<!-- Generator: Adobe Illustrator 28.0.0, SVG Export Plug-In . SVG Version: 6.00 Build 0)  -->
<svg version="1.1" id="Layer_1" xmlns="http://www.w3.org/2000/svg" xmlns:xlink="http://www.w3.org/1999/xlink" x="0px" y="0px"
	 viewBox="0 0 102.8 64" style="enable-background:new 0 0 102.8 64;" xml:space="preserve">
<style type="text/css">
	.st0{fill:#FDB500;}
	.st1{fill:#FDC900;}
	.st2{fill:none;stroke:#FDB500;stroke-width:2.3;stroke-linecap:round;stroke-miterlimit:10;}
	.st3{fill:#FDB500;stroke:#FDB500;stroke-width:2;stroke-linecap:round;stroke-miterlimit:10;}
</style>
<g id="XMLID_00000134221592265498643850000008638674346914084998_">
	<g>
		<path class="st0" d="M89,60.2c1.7,0,3.1-1.4,3.1-3.1v-43c0-1.7-1.4-3-3-3H7.6c-1.8,0-3.2,1.4-3.2,3.2v42.9c0,1.6,1.3,3,3,3H89z
			 M13.1,3.7c-0.8,0-1.4,0.6-1.4,1.4v3.5h79c2.2,0,3.9,1.8,3.9,3.9v40.2h3.3c0.8,0,1.4-0.6,1.4-1.4V5.1c0-0.8-0.6-1.4-1.4-1.4H13.1z
			 M1.8,57.9L1.5,13.5c0-2.4,2.9-4.9,5.1-4.9h1.7c0.5,0,0.9-0.4,0.9-0.9V5.9c0-2.7,2.2-4.8,4.8-4.8H97c2.7,0,4.8,2.2,4.8,4.8v44.5
			c0,2.7-2.2,4.8-4.8,4.8h-1.6c-0.5,0-0.9,0.4-0.9,0.9v1.8c0,2.7-2.2,4.8-4.8,4.8H6.7C4,62.7,1.8,60.5,1.8,57.9z"/>
		<path class="st1" d="M92,57.1c0,1.7-1.4,3.1-3.1,3.1H7.3c-1.7,0-3-1.3-3-3V14.4c0-1.8,1.4-3.2,3.2-3.2H89c1.7,0,3,1.4,3,3V57.1z
			 M87.3,49.6c0-5.1,0-22.7,0-27.9c0-0.7-0.6-1.2-1.3-1.2c-2.3,0-4.2-1.9-4.2-4.2c0-0.7-0.5-1.3-1.2-1.3c-8.8,0-55.9,0-64.7,0
			c-0.7,0-1.2,0.6-1.2,1.3c0,2.3-1.9,4.2-4.2,4.2c-0.7,0-1.3,0.5-1.3,1.2c0,5.9,0,27.9,0,27.9c0,0.7,0.6,1.2,1.2,1.2
			c2.3,0,4.2,1.9,4.2,4.2c0,0.7,0.6,1.2,1.2,1.2c8.8,0,55.9,0,64.7,0c0.7,0,1.2-0.6,1.2-1.3c0-2.3,1.9-4.2,4.2-4.2
			C86.7,50.8,87.3,50.3,87.3,49.6z"/>
		<path class="st0" d="M99.3,5.1v46.2c0,0.8-0.6,1.4-1.4,1.4h-3.3V12.6c0-2.2-1.8-3.9-3.9-3.9h-79V5.1c0-0.8,0.6-1.4,1.4-1.4h84.8
			C98.7,3.7,99.3,4.3,99.3,5.1z"/>
		<path class="st0" d="M87.3,21.7c0,5.1,0,22.7,0,27.9c0,0.7-0.6,1.2-1.3,1.2c-2.3,0-4.2,1.9-4.2,4.2c0,0.7-0.5,1.3-1.2,1.3
			c-8.8,0-55.9,0-64.7,0c-0.7,0-1.2-0.6-1.2-1.2c0-2.3-1.9-4.2-4.2-4.2c-0.7,0-1.3-0.6-1.2-1.2c0,0,0-22,0-27.9
			c0-0.7,0.6-1.2,1.3-1.2c2.3,0,4.2-1.9,4.2-4.2c0-0.7,0.6-1.3,1.2-1.3c8.8,0,55.9,0,64.7,0c0.7,0,1.2,0.6,1.2,1.3
			c0,2.3,1.9,4.2,4.2,4.2C86.7,20.5,87.3,21,87.3,21.7z M84.8,48.4V22.9c-2.7-0.5-4.8-2.6-5.3-5.3H48.2H17c-0.5,2.7-2.6,4.8-5.3,5.3
			v25.6c2.7,0.5,4.8,2.6,5.3,5.3h31.2h31.2C79.9,51.1,82.1,49,84.8,48.4z"/>
		<path class="st1" d="M84.8,22.9v25.6c-2.7,0.5-4.8,2.6-5.3,5.3H48.2v-3c8.6,0,15.6-7.2,15.2-15.9C63,27.2,56.7,20.8,49,20.5
			c-0.2,0-0.5,0-0.8,0v-2.9h31.2C79.9,20.2,82.1,22.3,84.8,22.9z M73.2,40.4c3.2,0.5,6-2.2,5.5-5.5c-0.3-2-1.9-3.7-4-4
			c-3.2-0.5-6,2.2-5.5,5.5C69.6,38.4,71.2,40.1,73.2,40.4z"/>
		<path class="st0" d="M78.7,34.9c0.5,3.2-2.2,6-5.5,5.5c-2-0.3-3.7-2-4-4c-0.5-3.2,2.2-6,5.5-5.5C76.8,31.2,78.4,32.9,78.7,34.9z
			 M76.2,36.2c0.4-1.7-1.1-3.2-2.8-2.8c-0.8,0.2-1.4,0.8-1.6,1.6c-0.4,1.7,1.1,3.2,2.8,2.8C75.4,37.6,76,37,76.2,36.2z"/>
		<path class="st1" d="M73.4,33.4c1.7-0.4,3.2,1.1,2.8,2.8c-0.2,0.8-0.8,1.4-1.6,1.6c-1.7,0.4-3.2-1.1-2.8-2.8
			C72,34.3,72.6,33.6,73.4,33.4z"/>
		<path class="st0" d="M63.4,34.9c0.4,8.7-6.5,15.9-15.2,15.9C39.8,50.8,33,44,33,35.6s6.8-15.2,15.2-15.2c0.2,0,0.5,0,0.8,0
			C56.7,20.8,63,27.2,63.4,34.9z M60.8,36.8c1.1-8.3-6-15.3-14.3-14.2c-5.6,0.7-10.2,5.3-10.9,11c-1,8.3,6,15.2,14.2,14.2
			C55.5,47,60.1,42.4,60.8,36.8z"/>
		<path class="st1" d="M46.5,22.6c8.3-1.1,15.3,5.9,14.3,14.2c-0.7,5.6-5.3,10.2-10.9,10.9c-8.3,1-15.3-5.9-14.2-14.2
			C36.3,27.9,40.9,23.3,46.5,22.6z"/>
		<path class="st1" d="M48.2,50.8v3H17c-0.5-2.7-2.6-4.8-5.3-5.3V22.9c2.7-0.5,4.8-2.6,5.3-5.3h31.2v2.9c-8.4,0-15.2,6.8-15.2,15.2
			S39.8,50.8,48.2,50.8z M22.6,40.8c3,0,5.3-2.7,4.7-5.8c-0.4-1.8-1.8-3.3-3.6-3.6c-3.1-0.7-5.8,1.7-5.8,4.7
			C17.8,38.6,20,40.8,22.6,40.8z"/>
		<path class="st0" d="M27.3,35c0.6,3.1-1.7,5.8-4.7,5.8c-2.6,0-4.8-2.2-4.8-4.8c0-3,2.7-5.3,5.8-4.7C25.4,31.7,26.9,33.2,27.3,35z
			 M24.8,36.2c0.4-1.7-1.1-3.2-2.8-2.8c-0.8,0.2-1.5,0.8-1.6,1.6c-0.4,1.7,1.1,3.2,2.8,2.8C24,37.6,24.6,37,24.8,36.2z"/>
		<path class="st1" d="M22,33.4c1.7-0.4,3.2,1.1,2.8,2.8c-0.2,0.8-0.8,1.4-1.6,1.6c-1.7,0.4-3.2-1.1-2.8-2.8
			C20.6,34.3,21.2,33.6,22,33.4z"/>
	</g>
	<g>
	</g>
</g>
<path class="st2" d="M51,38.4c-0.6,0.7-1.5,1.1-2.4,1.1c-2,0-3.6-1.9-3.6-4.3c0-2.4,1.6-4.3,3.6-4.3c1.1,0,2.1,0.6,2.7,1.5"/>
<line class="st3" x1="48.2" y1="28" x2="48.2" y2="42"/>
</svg>
