<?xml version="1.0" encoding="utf-8"?>
<svg version="1.1" id="Layer_1" xmlns="http://www.w3.org/2000/svg" xmlns:xlink="http://www.w3.org/1999/xlink" x="0px" y="0px"
	 viewBox="0 0 596.7 512" style="enable-background:new 0 0 596.7 512;" xml:space="preserve">
<style type="text/css">
	.st0{fill:#FFDD33;}
	.st1{fill:#FDC500;}
</style>
<path class="st0" d="M276,284.3L22.3,90C10,80.6,10,65.4,22.3,56l29.6-22.7c12.2-9.4,32-9.4,44.3,0l188.7,143.9
	c10.9,4.6,17.6,5.2,27.6-0.8L500.1,33.3c12.2-9.3,32-9.3,44.3,0L573.9,56c12.2,9.4,12.2,24.6,0,33.9L320.3,284.3
	C308,293.7,288.2,293.7,276,284.3L276,284.3z"/>
<path class="st1" d="M276.2,493l-253.7-187c-12.2-9-12.2-23.6,0-32.7l29.6-21.8c12.2-9,32-9,44.3,0l188.7,138.5
	c10.9,4.5,17.6,5,27.6-0.8l187.6-137.7c12.2-9,32-9,44.3,0l29.6,21.8c12.2,9,12.2,23.6,0,32.7L320.5,493
	C308.3,502,288.4,502,276.2,493L276.2,493z"/>
</svg>
