<?xml version="1.0" encoding="utf-8"?>
<!-- Generator: Adobe Illustrator 28.0.0, SVG Export Plug-In . SVG Version: 6.00 Build 0)  -->
<svg version="1.1" id="dwinnemmen" xmlns="http://www.w3.org/2000/svg" xmlns:xlink="http://www.w3.org/1999/xlink" x="0px" y="0px"
	 viewBox="0 0 127.5 124.5" style="enable-background:new 0 0 127.5 124.5;" xml:space="preserve">
<style type="text/css">
	.st0{display:none;}
	.st1{fill:none;stroke:#FDB500;stroke-width:12;stroke-linecap:round;stroke-miterlimit:10;}
	.st2{fill:none;stroke:#FDC900;stroke-width:12;stroke-linecap:round;stroke-miterlimit:10;}
	.st3{display:none;fill:#FDC900;}
	.st4{display:none;fill:#FDB500;}
</style>
<path class="st0" d="M55.2,41.1c-1.2,0-2.3,0.1-3.5,0.1 M46.4,40.6l4.6-3.8l4.2,4.3c3.5,3.9,20.6,7.9,27.7,0
	c1.4,0.4,8.8-16.7,4.4-25.6c-5.9-13.2-33-32.6-33-32.6c-2.4-1.7-5.1,0-5.1,0s-9.7,9.9-14.7,13s-19.2,16.7-21,29.2
	c-0.7,4.7,0.4,7.7,0.7,8.8c2.7,7.7,10.2,11.1,12.3,12 M29,35.9c-0.3-0.1-5.5-2.5-7.3-6.8c-2.8-6.5,3.4-15,13.3-24
	c5.5-5,11.3-9.6,17-14.4c0,0,1-0.1,2.1,0.4c2.1,1,6.1,4.3,10.8,8.3C78,10.5,80.2,17.6,80,17.4c0,0,5.1,9.8,0.4,15.8
	c-4.7,6.1-14.3,3.9-14.3,3.9s-7.5-1.6-7.8-6.1c-0.3-4,0.8-6.5,2.6-7.9c0.4-0.3,1.3-1,2.6-1.2c3.4-0.5,5.9,2.7,6.1,2.9
	c1.1,1.2,2.4,1.8,3.5,1.4c1.6-0.5,1.8-3,1.8-4.2c-0.2-3.7-4-6.8-7.6-7.8c-1-0.3-1.8-0.4-2.9-0.4c-5.1-0.1-9.8,3.5-11.5,8.7
	c-0.2,0.5-0.7,0.8-1.2,0.7c-0.5,0-0.9-0.4-1-0.8c-2-4.7-6.5-7.7-11.4-7.7c-6.2,0-10.5,5.9-11.1,8.1c-0.7,2.5,0.3,4.9,1.6,5.2
	c1.7,0.3,4,0,4.8-2.9c0.8-1.7,2.5-2.7,4.3-2.8c2.6-0.1,4.2,1.9,4.3,2.1c0.5,0.6,1.9,2.3,1.9,4.7c0,3.8-3.5,6.1-4.2,6.6
	C36,38.9,29.9,36.3,29,35.9z"/>
<g>
	<path class="st1" d="M66.9,10.4l40.5,43.1c13,15.3,15,34.8,5,50.9c-9.8,12.8-27.3,14.9-39.1,4.8c-0.1-0.1-0.2-0.2-0.3-0.2l-0.2-0.1
		c-7.6-6.7-8.3-19-1.7-27.7c6.2-8.1,16.2-7.2,21.1-2.9c1.4,1.2,2.5,2.7,3.2,4.4"/>
	<path class="st1" d="M66.9,10.4L25.8,53.8c-13,15.3-15,34.8-5,50.9c9.8,12.8,27.3,14.9,39.1,4.8c0.1-0.1,0.2-0.2,0.3-0.2l0.2-0.1
		c7.6-6.7,8.3-19,1.7-27.7c-6.2-8.1-16.2-7.2-21.1-2.9c-1.4,1.2-2.5,2.7-3.2,4.4"/>
</g>
<g>
	<path class="st2" d="M60.6,8.1l40.5,43.1c13,15.3,15,34.8,5,50.9c-9.8,12.8-27.3,14.9-39.1,4.8c-0.1-0.1-0.2-0.2-0.3-0.2l-0.2-0.1
		c-7.6-6.7-8.3-19-1.7-27.7C71,70.8,81,71.7,85.9,76c1.4,1.2,2.5,2.7,3.2,4.4"/>
	<path class="st2" d="M60.6,8.1L19.5,51.4c-13,15.3-15,34.8-5,50.9c9.8,12.8,27.3,14.9,39.1,4.8c0.1-0.1,0.2-0.2,0.3-0.2l0.2-0.1
		c7.6-6.7,8.3-19,1.7-27.7c-6.2-8.1-16.2-7.2-21.1-2.9c-1.4,1.2-2.5,2.7-3.2,4.4"/>
</g>
<path class="st3" d="M123.5-32.7h-0.8c-2.9,0-5.2-2.3-5.2-5.2l0,0c0-2.9,2.3-5.2,5.2-5.2h0.8c2.9,0,5.2,2.3,5.2,5.2l0,0
	C128.7-35,126.4-32.7,123.5-32.7z"/>
<path class="st4" d="M136.1-32.6h-0.8c-2.9,0-5.2-2.3-5.2-5.2l0,0c0-2.9,2.3-5.2,5.2-5.2h0.8c2.9,0,5.2,2.3,5.2,5.2l0,0
	C141.3-34.9,139-32.6,136.1-32.6z"/>
</svg>
