<?xml version="1.0" encoding="utf-8"?>
<!-- Generator: Adobe Illustrator 26.0.3, SVG Export Plug-In . SVG Version: 6.00 Build 0)  -->
<svg version="1.1" id="Layer_1" xmlns="http://www.w3.org/2000/svg" xmlns:xlink="http://www.w3.org/1999/xlink" x="0px" y="0px"
	 viewBox="0 0 320.8 229.9" style="enable-background:new 0 0 320.8 229.9;" xml:space="preserve">
<style type="text/css">
	.st0{display:none;fill:#FFDD33;}
	.st1{fill:#FDC500;}
</style>
<path class="st0" d="M262.8,273.1L9.1,78.7c-12.2-9.4-12.2-24.6,0-33.9l29.6-22.7c12.2-9.4,32-9.4,44.3,0L271.6,166
	c10.9,4.6,17.6,5.2,27.6-0.8L486.9,22.1c12.2-9.3,32-9.3,44.3,0l29.6,22.7c12.2,9.4,12.2,24.6,0,33.9L307.1,273.1
	C294.8,282.5,275,282.5,262.8,273.1L262.8,273.1z"/>
<path class="st1" d="M172.3,20.5l136,146.3c6.6,7.1,6.6,18.5,0,25.6l-15.9,17.1c-6.5,7-17.2,7.1-23.7,0L167.5,101.1
	c-5.8-3.5-9.5-3.9-14.8,0.6L52.1,209.5c-6.6,7-17.2,7-23.7,0l-15.9-17.1c-6.6-7.1-6.6-18.5,0-25.6l136-146.3
	C155.1,13.4,165.7,13.4,172.3,20.5L172.3,20.5z"/>
</svg>