<?xml version="1.0" encoding="utf-8"?>
<!-- Generator: Adobe Illustrator 28.0.0, SVG Export Plug-In . SVG Version: 6.00 Build 0)  -->
<svg version="1.1" id="Layer_1" xmlns="http://www.w3.org/2000/svg" xmlns:xlink="http://www.w3.org/1999/xlink" x="0px" y="0px"
	 viewBox="0 0 65.9 30.6" style="enable-background:new 0 0 65.9 30.6;" xml:space="preserve">
<style type="text/css">
	.st0{fill:#666666;}
</style>
<path class="st0" d="M14.9,15.4c0,4.1-3.1,7.3-7.1,7.4c-4,0-7.2-3.3-7.2-7.4C0.6,11.3,3.8,8,7.7,8C11.7,8,14.9,11.3,14.9,15.4z"/>
<path class="st0" d="M65.3,15.4c0.1,4.1-3.1,7.4-7.1,7.4S51,19.5,51,15.4c0-4.1,3.2-7.4,7.1-7.4C62,8,65.3,11.3,65.3,15.4z"/>
<path class="st0" d="M40.2,15.4c0,4.1-3.2,7.4-7.1,7.4c-4,0-7.2-3.3-7.2-7.4c0-4.1,3.2-7.4,7.1-7.4C36.9,8,40.2,11.3,40.2,15.4z"/>
</svg>
