<?xml version="1.0" encoding="utf-8"?>
<!-- Generator: Adobe Illustrator 26.0.3, SVG Export Plug-In . SVG Version: 6.00 Build 0)  -->
<svg version="1.1" id="Layer_1" xmlns="http://www.w3.org/2000/svg" xmlns:xlink="http://www.w3.org/1999/xlink" x="0px" y="0px"
	 viewBox="0 0 65.9 17.7" style="enable-background:new 0 0 65.9 17.7;" xml:space="preserve">
<style type="text/css">
	.st0{fill:#666666;}
</style>
<path class="st0" d="M8.7,16c-4,0-7.2-3.3-7.2-7.4c0-4.1,3.2-7.4,7.1-7.4c4,0,7.2,3.3,7.2,7.4S12.7,15.9,8.7,16 M32.6,15.9
	c-4,0-7.2-3.3-7.2-7.4c0-4.1,3.2-7.4,7.1-7.4s7.2,3.3,7.2,7.4C39.7,12.6,36.5,15.9,32.6,15.9 M56.4,15.9c-4,0-7.2-3.3-7.2-7.4
	s3.2-7.4,7.1-7.4s7.2,3.3,7.2,7.4C63.6,12.6,60.4,15.9,56.4,15.9"/>
</svg>
