<?xml version="1.0" encoding="utf-8"?>
<!-- Generator: Adobe Illustrator 28.0.0, SVG Export Plug-In . SVG Version: 6.00 Build 0)  -->
<svg version="1.1" id="Layer_1" xmlns="http://www.w3.org/2000/svg" xmlns:xlink="http://www.w3.org/1999/xlink" x="0px" y="0px"
	 viewBox="0 0 341 227" style="enable-background:new 0 0 341 227;" xml:space="preserve">
<style type="text/css">
	.st0{fill:#FDC900;}
	.st1{fill:#FDB500;}
	.st2{fill:none;stroke:#FFCC00;stroke-width:15;stroke-linecap:round;stroke-linejoin:round;stroke-miterlimit:10;}
	.st3{fill:none;stroke:#FDC900;stroke-width:15;stroke-linecap:round;stroke-linejoin:round;stroke-miterlimit:10;}
</style>
<g id="XMLID_00000168817166213875242220000013458521352150174904_">
	<g>
		<path class="st0" d="M318.5,162.5h-18v-1v-12c0-10,9-17,18-17H337h0.4l0.1,14C337.5,154.5,326.5,162.5,318.5,162.5z"/>
		<path class="st1" d="M6.5,40.5L6.5,40.5h19c12,0,19-8,19-18v-19c0,0,0,0,0.1,0l255.9,2.1v17.9c0,7,10,17,20,17h16h0.1l0.8,92H337
			h-18.5c-9,0-18,7-18,17v12v1h-255c-0.3,0-0.7,0-1,0v0v-19c0-12-7-19-19-20H6.6H6.5V40.5z M275.2,86.1L275.2,86.1l-0.1-0.1v0.1
			H275.2z M224,86c0-22.2-22.9-40.1-51.1-40.1s-51.1,18-51.1,40.1c0,22.2,22.9,39.1,51.1,39.1S224,108.1,224,86z M70.7,86.1
			L70.7,86.1l-0.2-0.6l0.1,0.6H70.7z"/>
		<path class="st0" d="M313.5,5.5c13,0,23,12,23,20l0.1,15h-0.1h-16c-10,0-20-10-20-17V5.6V5.5H313.5z"/>
		<path class="st0" d="M300.7,196.3v13.4c0,10.1-12.4,17.3-24.8,14.7c-87.8-18.7-178.3-28.2-269.2-28.1c0,0-0.2-12.9-0.2-13.8h290.2
			L300.7,196.3z"/>
		<path class="st0" d="M172.8,45.8c28.2,0,51.1,18,51.1,40.1c0,22.2-22.9,39.1-51.1,39.1s-51.1-17-51.1-39.1
			C121.7,63.8,144.6,45.8,172.8,45.8z"/>
		<path class="st0" d="M44.5,162.5L44.5,162.5c-8,0-8.4,0.6-19,0c-10.2-0.5-19-12-19-21c0-5,0.1-11.4,0.1-18h18.9c12,1,19,8,19,20
			V162.5z"/>
		<path class="st0" d="M44.5,3.5v19c0,10-7,18-19,18H6.6c0-6.7-0.1-13-0.1-18c0-10,13-19,23-19C35.5,3.5,39.5,3.5,44.5,3.5z"/>
	</g>
	<g>
		<rect x="275.1" y="86" class="st2" width="0.1" height="0.1"/>
		<polygon class="st3" points="70.5,85.5 70.7,86 70.7,86.1 70.6,86.1 		"/>
	</g>
</g>
</svg>
