<?xml version="1.0" encoding="utf-8"?>
<!-- Generator: Adobe Illustrator 28.0.0, SVG Export Plug-In . SVG Version: 6.00 Build 0)  -->
<svg version="1.1" id="Layer_1" xmlns="http://www.w3.org/2000/svg" xmlns:xlink="http://www.w3.org/1999/xlink" x="0px" y="0px"
	 viewBox="0 0 156.7 129.4" style="enable-background:new 0 0 156.7 129.4;" xml:space="preserve">
<style type="text/css">
	.st0{fill:#FDB500;}
	.st1{fill:#FDC900;}
	.st2{fill:#FFFFFF;}
</style>
<g>
	<g id="XMLID_00000079468983445610423440000009307286279775446956_">
		<g>
			<path class="st0" d="M98.4,16.1c1.6-0.4,3-0.7,4.5-0.8c0.9-0.1,0.8-0.4,0.5-1.6c-2.7-6.6-6.2-9.9-13.8-9.9
				c-7.6,0-13.8,6-13.8,13.3c0,4.3,1.7,8.2,5.4,10.2c2.6,1.4,9.5,1.1,10.5,1.1c2.4-0.4,3.3,0,2.7-4.2C93.8,20,92.1,17.8,98.4,16.1z"
				/>
		</g>
	</g>
	<path class="st1" d="M90.9,29.6c-2.7,0-5.3-0.1-8.8-1.1c1.1,2.1,5.6,4.8,9.3,4.8c6.7,0,12.1-5.4,12.1-12.1c0-1.8-0.6-3.8-1.1-5.1
		c-1.6,0.3-2.9,0.5-4.6,1c-2.2,1-3.4,1.4-2.9,3.9c0.3,1.3,0.9,4.1,0.4,6.2C94.5,29.3,93.8,29.2,90.9,29.6z"/>
	<g id="XMLID_00000181061675560300667630000010767393780412501902_">
		<g>
			<path class="st0" d="M83.3,37.4c4.2,3.4,0.4,1.9,5.6,7.1c0,0,0.4-5.9-0.7-7c-0.9-1.5-1.3-4.9-8.9-4.3C71.7,33.9,68.6,45,68.6,45
				s-3.8,10.2-2.3,23.3c0.9,12.1,11.2,11.6,11.2,11.6l18.7,2.9l7.6,18.3c0,0,2.5,6.7,9.4,3.4c6.9-3.2,1.9-11,1.9-11L107.6,75
				c0,0-1.1-4-6.3-4.7C96,69.7,85.5,68,85.5,68s0.2-10.1,1.1-11.5c-1.4-1-7.1-5.3-10.8-12.6C74.1,38.9,78.3,35.5,83.3,37.4z"/>
		</g>
	</g>
	<path class="st1" d="M101.3,61.4c11.9,2.1,11.8-1.1,12.2-4.2c-1.4-4.3-3.6-3.4-6.5-3.4c-2.9-0.1-8-0.7-13.7-4.5
		c-5.7-3.8-8.8-9.9-8.8-9.9s-1.8-3.6-6.5-1.5c-3.1,3.2-0.7,5.9-0.7,5.9s2.7,4.6,5.6,7.7C83,51.6,89.4,59.4,101.3,61.4z"/>
	<path class="st1" d="M130.6,68.3c1-2.2,1.1-3.3,1.3-6.2c-0.1-2.6-0.4-4.3-1.3-6.2c-0.7-1.9-2.3-1.8-3.5-1.4
		c-3.7,0.3-6.9,3.4-6.9,7.7c0,4.2,3.5,7.1,6.9,7.7C128.6,70.1,129.8,69.8,130.6,68.3z"/>
	<path class="st0" d="M107.9,65.1c2.6-1.1,3-1,3-1l12,33.6c0,0,3.2-4.5,10.8-5.5c5.3-1.1,12.8,0.8,17.7,7c2.1,2.8,2.4-1,2.4-1
		s-3.6-7-10.3-9.4c-3.8-1.9-9.3-1.5-9.3-1.5s-2-8.2-9-13.1c-6-3.7-6-2.7-6.8-5.5c-0.8-2.8-3.7-10-3.7-10s-0.8,3.6-3.8,4.5
		c-3,0.9-8.7,0-8.7,0S102.3,67.8,107.9,65.1z"/>
	<ellipse class="st0" cx="136.6" cy="109.8" rx="15.9" ry="15.3"/>
	<ellipse class="st2" cx="136.6" cy="109.6" rx="6.3" ry="6"/>
	<path class="st0" d="M39.5,113.2c-1.9-7.7,3.3-14.2,3.3-14.2c8.8-10.3,22-8.6,29.1-0.4c5.3,5.5,4,14.5,4,14.5s41.2,0.3,42.6,0
		c-0.6-0.6-0.4-6.1-0.4-6.1H84.5c-2.5-3.5-4.2-13.2-4.4-15.3c1.4-0.3,1.4-1.9,1.4-1.9s0.3-3.6,0-5.7c-0.3-2.1-2.2-2.1-2.2-2.1
		S38,82,35.8,82.1c-2.2,0.1-2,1.8-2,1.8l-0.1,6c0,0,0.6,2.1,2.3,2.1c-5.8,12.8-5.8,21.3-5.8,21.3S32.7,113.2,39.5,113.2z"/>
	<ellipse class="st0" cx="57.8" cy="109.7" rx="15.9" ry="15.3"/>
	<ellipse class="st2" cx="57.8" cy="109.6" rx="6.1" ry="6.1"/>
</g>
<path class="st0" d="M27.8,64.1c0,0.8-0.6,1.4-1.4,1.4H4.7c-0.8,0-1.4,0.6-1.4,1.4v1.9v1.6c0,0.8,0.6,1.4,1.4,1.4h18.7
	c0.8,0,1.4,0.6,1.4,1.4v4.2c0,1.7,1.4,3,3.1,3h33.7c1.7,0,3.1-1.4,3.1-3V44.8c0-1.7-1.4-3-3.1-3H27.9c-1.7,0-3.1,1.4-3.1,3v1.5
	c0,0.8,0.6,1.4,1.4,1.4h3.3c0.8,0,1.4,0.6,1.4,1.4v3.2c0,0.8-0.6,1.4-1.4,1.4H13.9c-0.8,0-1.4,0.6-1.4,1.4v1.6v1.6
	c0,0.8,0.6,1.4,1.4,1.4h10.9h1.6c0.8,0,1.4,0.6,1.4,1.4v1.6V64.1z"/>
<path class="st1" d="M16.5,46.9c1.2,0,2.1-1,2.1-2.1v-2.4c0-0.9-0.8-1.7-1.7-1.7H8c-0.9,0-1.6,0.7-1.6,1.6v2.9c0,1,0.8,1.8,1.7,1.8
	H16.5z"/>
</svg>
