<?xml version="1.0" encoding="UTF-8"?>
<svg id="Layer_1" data-name="Layer 1" xmlns="http://www.w3.org/2000/svg" viewBox="0 0 147.75 81">
  <defs>
    <style>
      .cls-1 {
        fill: #fdb500;
      }

      .cls-1, .cls-2 {
        stroke-width: 0px;
      }

      .cls-2 {
        fill: #fdc900;
      }
    </style>
  </defs>
  <path class="cls-1" d="m146.71,54.12c.83,7.71.93,9.04.64,10.11-.47,1.64-1.71,3.11-3.36,3.92-1.27.63-1.55.66-6.4.72l-5.1.06-.51-2.04c-1-3.87-2.74-6.66-5.73-9.11-3.54-2.89-7.56-4.25-12.29-4.17-4.73.09-8.03,1.48-11.18,4.66-2.61,2.64-4.07,6.31-3.77,9.43.07.69-.04,1.31-.25,1.49-.23.21-4.9.32-16.89.44l-16.56.13-.3-1.02c-.14-.56-.48-1.76-.77-2.67-1.41-4.94-6.57-9.55-12.42-11.12-2.65-.73-7.13-.68-9.63.12-2.62.8-5,2.29-6.83,4.22-2.47,2.66-3.44,5.18-3.62,9.53-.08,1.51-.38,1.62-4.11,1.46-3.13-.11-4.69-.63-6.35-2.04-2.19-1.86-2.25-2.09-3.2-10.8-.55-5.11-.78-8.04-.62-8.5.46-1.44.85-1.47,15.53-1.65,7.82-.1,13.82-.27,14.37-.43,1.33-.35,2.85-1.65,3.46-2.93.63-1.36.6-4.33-.06-5.93-.59-1.45-2.5-3.21-4.11-3.81-1.18-.45-2.34-.46-15.5-.37l-14.23.1-.69-.68c-.54-.55-.66-.94-.69-2.14-.04-2.45-1.95-2.22,20.13-2.5,11.96-.15,20.05-.35,20.97-.52,1.98-.38,3.46-1.45,4.29-3.12.54-1.16.6-1.64.43-3.43-.31-3.24-1.69-5.12-4.57-6.2-1.3-.5-1.81-.51-21.33-.27-19.29.24-20.06.23-20.73-.22-.7-.48-.74-.58-1.12-4.54-.33-3.39-.32-4.19.06-4.98.89-2,2.85-3.36,5.86-3.98C22.07.8,91.77-.1,93.72.39c1.83.46,3.01,1.21,4.05,2.61l.91,1.19.74,6.17c.41,3.4.86,6.25.98,6.38.15.1,2.91.22,6.13.26,5.65.08,5.94.1,7.62.75,1.74.67,3.91,2,5.24,3.18.38.35,2.64,3.57,5,7.15,2.39,3.6,4.76,6.92,5.28,7.4,1.22,1.16,3.25,1.93,7.55,2.95,4.12.97,5.19,1.44,6.37,2.78,1.75,2,2.04,3.22,3.12,12.92Zm-22.07-16.18c.1-.08-1.61-2.87-3.78-6.19-4.43-6.79-5.44-7.83-8.84-9.24-1.98-.82-2.04-.82-6.55-.84-2.5-.02-4.65.06-4.75.16-.29.29,1.29,15.73,1.65,16.18.26.33,1.82.36,11.2.24,5.98-.08,10.96-.22,11.06-.32Z"/>
  <path class="cls-1" d="m111.96,57.34c9.08-1.75,17.74,5.73,16.19,13.96-1.08,5.53-7.12,9.37-13.45,8.5-9.26-1.29-14.67-10.55-10.23-17.51,1.58-2.47,4.43-4.37,7.49-4.95Zm7.19,15.12c1.85-1.38,2.44-3.28,1.65-5.26-.45-1.17-1.93-2.66-3.11-3.15-1.12-.5-2.64-.61-3.86-.34-4.5,1.03-4.97,6.71-.75,8.98,1.22.65,1.57.72,3.24.62,1.52-.09,2.05-.25,2.84-.85Z"/>
  <path class="cls-1" d="m60.74,67.51c1.69,6.04-2.61,12.05-9.4,13.08-6.71,1.05-13.55-3.15-15.32-9.39-.95-3.39.07-7.21,2.61-9.75,1.57-1.6,3.08-2.44,5.43-3.08,7.02-1.9,14.78,2.34,16.69,9.15Zm-11.89,6.69c3.71-.05,5.89-3.01,4.64-6.25-.54-1.45-2.06-2.86-3.4-3.2-2.59-.66-4.51-.28-5.93,1.15-3.13,3.13-.18,8.36,4.69,8.3Z"/>
  <path class="cls-2" d="m54.03,18.04c2.94.5,4.3,4.57,2.23,6.64l-.85.85-23.72.25-23.72.22-.9-.83c-.84-.76-.91-.96-1.1-2.82-.19-1.91-.14-2.07.58-2.82.44-.41,1.06-.83,1.42-.89,1-.19,45.06-.77,46.07-.6Z"/>
  <path class="cls-2" d="m47.86,40.5c.18,1.84.14,2.02-.56,2.74-.44.41-1.17.83-1.67.94-.47.08-10.1.28-21.41.42-21.9.27-21.62.3-23.01-.97-.41-.4-.67-1.04-.86-2.16-.33-1.99.11-3.25,1.36-3.85.76-.37,3.39-.45,22.06-.69,18.25-.23,21.31-.22,22.05.11,1.42.62,1.83,1.28,2.04,3.45Z"/>
</svg>