<?xml version="1.0" encoding="utf-8"?>
<!-- Generator: Adobe Illustrator 26.0.3, SVG Export Plug-In . SVG Version: 6.00 Build 0)  -->
<svg version="1.1" id="Layer_1" xmlns="http://www.w3.org/2000/svg" xmlns:xlink="http://www.w3.org/1999/xlink" x="0px" y="0px"
	 viewBox="0 0 17.9 16.1" style="enable-background:new 0 0 17.9 16.1;" xml:space="preserve">
<style type="text/css">
	.st0{fill-rule:evenodd;clip-rule:evenodd;fill:#FDB500;}
</style>
<path class="st0" d="M11.9,0.5c0.3,0,0.6,0.2,0.6,0.5v4.3c0,0.3-0.3,0.5-0.6,0.5c-0.3,0-0.6-0.2-0.6-0.5V3.7H1.6
	C1.3,3.7,1,3.5,1,3.2s0.3-0.5,0.6-0.5h9.7V1C11.3,0.7,11.5,0.5,11.9,0.5 M13.6,3.2c0-0.3,0.3-0.5,0.6-0.5h2.3c0.3,0,0.6,0.2,0.6,0.5
	s-0.3,0.5-0.6,0.5h-2.3C13.8,3.7,13.6,3.5,13.6,3.2 M6.1,5.3c0.3,0,0.6,0.2,0.6,0.5v1.6h9.7C16.7,7.5,17,7.7,17,8
	c0,0.3-0.3,0.5-0.6,0.5H6.7v1.6c0,0.3-0.3,0.5-0.6,0.5c-0.3,0-0.6-0.2-0.6-0.5V5.9C5.6,5.6,5.8,5.3,6.1,5.3 M1,8
	c0-0.3,0.3-0.5,0.6-0.5h2.3c0.3,0,0.6,0.2,0.6,0.5c0,0.3-0.3,0.5-0.6,0.5H1.6C1.3,8.5,1,8.3,1,8 M11.9,10.1c0.3,0,0.6,0.2,0.6,0.5
	V15c0,0.3-0.3,0.5-0.6,0.5c-0.3,0-0.6-0.2-0.6-0.5v-1.6H1.6c-0.3,0-0.6-0.2-0.6-0.5s0.3-0.5,0.6-0.5h9.7v-1.6
	C11.3,10.4,11.5,10.1,11.9,10.1 M13.6,12.8c0-0.3,0.3-0.5,0.6-0.5h2.3c0.3,0,0.6,0.2,0.6,0.5s-0.3,0.5-0.6,0.5h-2.3
	C13.8,13.4,13.6,13.1,13.6,12.8"/>
</svg>
