<?xml version="1.0" encoding="UTF-8"?><svg id="Layer_1" xmlns="http://www.w3.org/2000/svg" viewBox="0 0 1166.37 965.69"><defs><style>.cls-1{fill:#fff;stroke-width:0px;}</style></defs><path class="cls-1" d="m94.96,409.38l-45.55,20S-3.49,457.13.18,476.97c-.18,16.9,5.14,24.98,24.24,38.2l192.49,60.98s72,24.24,126.37,0c51.43-31.59,436.41-291.67,436.41-291.67,0,0,79.35-55.1,96.98-41.14s-33.06,73.47-52.16,88.16c-17.63,19.84-293.88,278.45-293.88,278.45,0,0-52.16,47.76,3.67,92.57s318.86,220.41,318.86,220.41c0,0,80.82,49.96,127.84,41.88s56.57-60.98,63.92-118.29l76.41-473.14,43.35-293.14s10.29-49.96-19.84-72.73c-36-21.31-100.65,9.55-100.65,9.55l-478.29,199.84L94.96,409.38Z"/></svg>