<?xml version="1.0" encoding="utf-8"?>
<svg version="1.1" id="Layer_1" xmlns="http://www.w3.org/2000/svg" xmlns:xlink="http://www.w3.org/1999/xlink" x="0px" y="0px"
	 viewBox="0 0 199.5 283.7" style="enable-background:new 0 0 199.5 283.7;" xml:space="preserve">
<style type="text/css">
	.st0{display:none;fill:#FFDD33;}
	.st1{fill:#FFFFFF;}
</style>
<path class="st0" d="M245.3,263.9L-8.3,69.6c-12.2-9.4-12.2-24.6,0-33.9l29.6-22.7c12.2-9.4,32-9.4,44.3,0l188.7,143.9
	c10.9,4.6,17.6,5.2,27.6-0.8L469.5,12.9c12.2-9.3,32-9.3,44.3,0l29.6,22.7c12.2,9.4,12.2,24.6,0,33.9L289.6,263.9
	C277.4,273.3,257.6,273.3,245.3,263.9L245.3,263.9z"/>
<path class="st1" d="M5.3,130.8L151.6,4.6c7.1-6.1,18.5-6.1,25.6,0l17.1,14.7c7,6.1,7.1,15.9,0,22L85.9,135.2
	c-3.5,5.4-3.9,8.8,0.6,13.7l107.7,93.4c7,6.1,7,15.9,0,22l-17.1,14.7c-7.1,6.1-18.5,6.1-25.6,0L5.3,152.9
	C-1.8,146.8-1.8,136.9,5.3,130.8L5.3,130.8z"/>
</svg>