<?xml version="1.0" encoding="UTF-8"?><svg id="Layer_1" xmlns="http://www.w3.org/2000/svg" viewBox="0 0 822.12 837.55"><defs><style>.cls-1{fill:#3cbd20;}.cls-1,.cls-2{stroke-width:0px;}.cls-2{fill:#fff;}</style></defs><path class="cls-2" d="m822.12,412.83c0,225.24-180.75,407.82-403.71,407.82-75.17,0-145.53-20.75-205.8-56.89-49.51,14.28-137.67,51.75-212.61,73.79,22.04-72.73,58.41-175.22,70.29-218.07-35.33-60.6-55.6-131.24-55.6-206.66C14.69,187.59,195.44,5,418.41,5s403.71,182.59,403.71,407.82Z"/><path class="cls-1" d="m750.49,409.5c0,185.65-148.98,336.14-332.75,336.14-68.01,0-136.41-18.68-189.1-54.06-17.78,6.84-107.41,37.98-120.63,41.28,8.82-28.65,29.64-99.58,36.37-117.92-41.79-56.19-59.38-129.75-59.38-205.44,0-185.65,148.98-336.14,332.75-336.14s332.75,150.5,332.75,336.14Z"/><path class="cls-2" d="m220.41,365.88c32.64,63.51,18.39,52.2,82.65,123.43,40.6,45.77,98.23,94.75,166.41,119.02,158.7,34.16,158.69-71.63,158.69-90.37-12.12-18.73-91.47-49.59-105.8-57.31-5.44,6.26-38.51,45.07-55.1,56.2-27.55-4.41-123.43-76.04-148.78-141.06,15.43-9.92,41.88-24.24,28.65-90.37-24.24-61.71-14.59-35.77-28.65-69.43-77.14-28.65-125.63,67.22-98.08,149.88Z"/><circle class="cls-1" cx="780.24" cy="29.76" r="29.76"/></svg>